<?xml version="1.0" standalone="no"?>
<!DOCTYPE svg PUBLIC "-//W3C//DTD SVG 20010904//EN"
 "http://www.w3.org/TR/2001/REC-SVG-20010904/DTD/svg10.dtd">
<svg version="1.0" xmlns="http://www.w3.org/2000/svg"
 width="500.000000pt" height="500.000000pt" viewBox="0 0 500.000000 500.000000"
 preserveAspectRatio="xMidYMid meet">
<metadata>
Created by potrace 1.14, written by Peter Selinger 2001-2017
</metadata>
<g transform="translate(0.000000,500.000000) scale(0.100000,-0.100000)"
fill="#000000" stroke="none">
<path d="M2345 4659 c-345 -19 -745 -155 -1048 -359 -514 -344 -851 -882 -941
-1501 -21 -142 -21 -456 0 -598 104 -711 539 -1319 1174 -1636 346 -173 704
-246 1103 -224 774 43 1466 504 1807 1204 157 321 220 594 220 955 0 360 -63
634 -220 955 -212 435 -544 768 -983 986 -233 116 -543 203 -759 214 -57 3
-128 7 -158 9 -30 1 -118 -1 -195 -5z m312 -800 c276 -37 532 -165 755 -378
199 -190 334 -437 395 -721 25 -120 25 -401 0 -520 -39 -179 -119 -370 -220
-520 -68 -101 -252 -283 -356 -353 -98 -65 -87 -67 -218 32 -165 125 -308 301
-398 494 -47 100 -89 237 -101 325 -4 29 -9 50 -12 47 -4 -3 -6 -259 -7 -568
l0 -562 -65 -3 c-80 -5 -207 12 -325 43 -120 32 -155 45 -255 95 -317 159
-531 402 -641 727 -43 128 -59 229 -59 374 l0 129 618 1 c339 1 606 3 592 5
-14 2 -59 9 -100 15 -246 37 -515 167 -708 344 -75 69 -199 226 -241 307 l-25
46 44 68 c56 87 246 277 342 342 167 112 375 198 553 227 99 16 328 19 432 4z"/>
<path d="M2501 3635 c-1 -11 -2 -271 -4 -578 l-2 -557 615 1 c537 1 605 3 535
14 -323 51 -575 182 -791 408 -178 186 -294 412 -339 657 -7 41 -14 66 -14 55z"/>
</g>
</svg>
